<?xml version="1.0" encoding="UTF-8" standalone="no"?>
<!DOCTYPE svg PUBLIC "-//W3C//DTD SVG 1.1//EN" "http://www.w3.org/Graphics/SVG/1.1/DTD/svg11.dtd">

<!-- Created with Vectornator (http://vectornator.io/) -->
<svg height="100%" stroke-miterlimit="10" style="fill-rule:nonzero;clip-rule:evenodd;stroke-linecap:round;stroke-linejoin:round;" version="1.1" viewBox="0 0 792 612" width="100%" xml:space="preserve" xmlns="http://www.w3.org/2000/svg" xmlns:vectornator="http://vectornator.io" xmlns:xlink="http://www.w3.org/1999/xlink">
<metadata>
<vectornator:setting key="IsTimeLapseWatermarkDisabled" value="false"/>
<vectornator:setting key="UndoHistoryDisabled" value="true"/>
<vectornator:setting key="VNDimensionsVisible" value="true"/>
<vectornator:setting key="VNSnapToGuides" value="true"/>
<vectornator:setting key="WDCMYKEnabledKey" value="false"/>
<vectornator:setting key="WDDisplayWhiteBackground" value="false"/>
<vectornator:setting key="WDDynamicGuides" value="false"/>
<vectornator:setting key="WDGuidesVisible" value="true"/>
<vectornator:setting key="WDIsolateActiveLayer" value="false"/>
<vectornator:setting key="WDOutlineMode" value="false"/>
<vectornator:setting key="WDRulersVisible" value="true"/>
<vectornator:setting key="WDSnapToEdges" value="false"/>
<vectornator:setting key="WDSnapToGrid" value="false"/>
<vectornator:setting key="WDSnapToPoints" value="false"/>
<vectornator:setting key="WDUnits" value="Inches"/>
</metadata>
<defs/>
<g id="Ebene-1" vectornator:layerName="Ebene 1">
<g opacity="1">
<path d="M214.639 370.559C293.751 372.051 598.259 375.783 598.259 375.783" fill="#cfff00" fill-rule="evenodd" opacity="1" stroke="none"/>
<g opacity="1">
<path d="M279.571 222.597L191.129 367.582C191.129 367.582 332.561 257.631 402.344 365.076C402.344 365.076 457.946 264.453 625.5 383.548L529.595 224.323C529.595 224.323 450.483 179.562 400.851 228.754C400.851 228.754 343.383 174.268 279.571 222.597Z" fill="#cfff00" fill-rule="evenodd" stroke="none"/>
<path d="M330.75 202.625C318.372 203.297 306.321 206.829 295.344 212.531C294.385 213.029 293.505 213.658 292.562 214.188C305.766 206.852 320.552 202.613 335.719 202.75C334.063 202.739 332.409 202.535 330.75 202.625ZM335.719 202.75C335.916 202.751 336.115 202.747 336.312 202.75C336.197 202.748 336.084 202.72 335.969 202.719C335.884 202.718 335.803 202.751 335.719 202.75ZM336.312 202.75C352.128 203.009 367.62 207.788 381.406 215.406C386.354 218.14 391.112 221.242 395.594 224.688C396.936 225.719 398.254 226.796 399.531 227.906C399.847 228.181 400.374 228.953 400.875 229C401.021 229.014 401.678 228.317 401.812 228.188C402.072 227.937 402.331 227.684 402.594 227.438C403.879 226.232 405.202 225.087 406.562 223.969C411.924 219.563 417.864 215.857 424.219 213.062C440.295 205.993 458.223 204.867 475.469 207.156C489.859 209.066 503.95 213.266 517.281 218.969C520.37 220.29 523.41 221.699 526.406 223.219C527.089 223.565 527.762 223.919 528.438 224.281C528.66 224.401 528.904 224.534 529.125 224.656C529.161 224.676 529.17 224.687 529.219 224.719C529.978 226.136 530.892 227.497 531.719 228.875C533.216 231.372 534.721 233.878 536.219 236.375C541.023 244.386 545.822 252.395 550.625 260.406C564.96 284.315 579.291 308.216 593.625 332.125C600.751 344.011 607.874 355.895 615 367.781C617.268 371.564 619.545 375.342 621.812 379.125C622.062 379.542 622.307 379.96 622.562 380.375C622.416 380.276 622.267 380.162 622.125 380.062C619.576 378.276 616.987 376.521 614.406 374.781C607.164 369.898 599.825 365.175 592.312 360.719C570.831 347.977 548.007 336.979 523.875 330.281C507.329 325.689 490.026 323.167 472.844 324.438C453.583 325.862 434.776 332.3 419.469 344.25C414.563 348.08 410.042 352.436 406.094 357.25C404.875 358.736 403.711 360.258 402.625 361.844C402.514 362.006 402.422 362.18 402.312 362.344C402.001 361.877 401.695 361.403 401.375 360.938C400.667 359.909 399.832 358.757 399.094 357.75C396.875 354.722 394.525 351.806 392.031 349C380.774 336.338 366.582 326.51 350.438 321.219C334.3 315.93 316.996 315.27 300.25 317.469C276.269 320.617 253.206 329.24 231.75 340.188C222.083 345.12 212.659 350.583 203.562 356.5C201.63 357.757 199.745 359.071 197.844 360.375C199.166 358.213 200.491 356.068 201.812 353.906C210.118 340.322 218.445 326.74 226.75 313.156C240.131 291.271 253.501 269.358 266.875 247.469C270.334 241.808 273.791 236.161 277.25 230.5C278.172 228.99 279.078 227.478 280 225.969C280.231 225.591 280.023 225.983 281.406 223.719C282.02 222.713 281.693 221.395 280.688 220.781C279.682 220.168 278.363 220.494 277.75 221.5C277.06 222.633 277.517 222.285 277.062 222.625C276.708 222.89 276.605 223.372 276.375 223.75C276.145 224.128 275.918 224.497 275.688 224.875C274.537 226.764 273.369 228.674 272.219 230.562C267.848 237.739 263.496 244.917 259.125 252.094C242.332 279.668 225.535 307.233 208.75 334.812C204.151 342.369 199.567 349.913 194.969 357.469C194.049 358.98 193.107 360.489 192.188 362C191.498 363.133 190.815 364.273 190.125 365.406C189.907 365.765 189.685 366.14 189.469 366.5C189.426 366.572 189.293 366.795 189.312 366.812C190.281 367.646 191.326 368.384 192.344 369.156C192.357 369.166 192.726 368.862 192.75 368.844C193.229 368.479 193.703 368.139 194.188 367.781C196.299 366.223 198.43 364.703 200.594 363.219C201.361 362.692 202.26 362.08 203.031 361.562C213.525 354.526 224.464 348.149 235.75 342.469C254.435 333.064 274.306 325.408 294.969 321.781C308.729 319.366 322.917 318.804 336.719 321.25C355.669 324.608 372.601 333.564 386.156 347.219C390.411 351.505 394.29 356.159 397.812 361.062C398.673 362.26 399.463 363.407 400.25 364.594C400.54 365.031 400.828 365.732 401.25 366.062C401.41 366.187 401.549 366.43 401.75 366.406C402.41 366.33 403.026 365.992 403.656 365.781C403.714 365.762 403.864 365.415 403.906 365.344C404.183 364.884 404.454 364.416 404.75 363.969C405.091 363.452 405.453 362.942 405.812 362.438C407.235 360.439 408.783 358.526 410.406 356.688C416.321 349.988 423.336 344.282 431.031 339.75C459.038 323.255 492.785 324.187 523.281 332.5C550.416 339.897 575.894 352.743 599.719 367.5C606.076 371.438 612.332 375.522 618.5 379.75C619.362 380.341 620.204 380.935 621.062 381.531C621.494 381.831 621.944 382.136 622.375 382.438C622.811 382.742 623.253 383.069 623.688 383.375C624.157 383.705 624.85 384.377 625.469 384.156C626.782 383.687 625.967 382.564 625.531 381.844C625.283 381.434 625.029 381.035 624.781 380.625C623.587 378.651 622.382 376.661 621.188 374.688C620.726 373.925 620.274 373.169 619.812 372.406C619.361 371.66 618.92 370.934 618.469 370.188C609.756 355.79 601.025 341.367 592.312 326.969C577.797 302.981 563.295 279.02 548.781 255.031C544.259 247.557 539.74 240.068 535.219 232.594C533.927 230.458 532.636 228.323 531.344 226.188C530.959 225.552 530.378 224.305 529.812 223.844C529.184 223.331 528.099 222.931 527.375 222.562C525.919 221.822 524.45 221.126 522.969 220.438C517.888 218.076 512.69 215.956 507.406 214.094C485.501 206.376 461.137 202.341 438.219 207.75C428.526 210.037 419.312 214.052 411.156 219.781C408.308 221.782 405.594 223.987 403.031 226.344C402.768 226.586 402.479 226.817 402.219 227.062C401.876 227.387 401.558 227.702 401.219 228.031C401.106 228.141 400.989 228.266 400.875 228.375C400.864 228.385 400.854 228.396 400.844 228.406C400.801 228.367 400.761 228.319 400.719 228.281C400.519 228.1 400.328 227.927 400.125 227.75C399.698 227.377 399.249 227.019 398.812 226.656C397.237 225.349 395.624 224.111 393.969 222.906C389.347 219.544 384.478 216.51 379.406 213.875C366.105 206.966 351.318 202.957 336.312 202.75ZM292.562 214.188C292.207 214.385 291.821 214.517 291.469 214.719C290.546 215.246 289.688 215.882 288.781 216.438C290.031 215.665 291.282 214.907 292.562 214.188ZM288.781 216.438C287.711 217.099 286.577 217.647 285.531 218.344C284.886 218.774 284.262 219.245 283.625 219.688C285.296 218.534 287.049 217.499 288.781 216.438Z" fill="#b7b149" stroke="none"/>
</g>
<path d="M254.941 308.239L380.7 307.866" fill="#000000" fill-rule="evenodd" opacity="1" stroke="none"/>
<path d="M401.224 229.5L401.716 364.252" fill="#ffffff" fill-rule="evenodd" opacity="1" stroke="#000000" stroke-linecap="butt" stroke-linejoin="round" stroke-width="3.86206"/>
<path d="M280.69 223.156C280.69 223.156 344.129 174.271 400.851 230.62C400.851 230.62 447.735 181.361 527.967 225.395L623.498 385.112C623.498 385.112 477.962 267.937 403.701 363.468" fill="#ffffff" fill-opacity="0" fill-rule="evenodd" opacity="1" stroke="#b7b149" stroke-linecap="butt" stroke-linejoin="round" stroke-width="3.86206"/>
</g>
</g>
</svg>
